<?xml version="1.0" encoding="UTF-8"?>
<svg xmlns="http://www.w3.org/2000/svg" xmlns:xlink="http://www.w3.org/1999/xlink" width="22px" height="15px" viewBox="0 0 22 15" version="1.1">
<g id="surface1">
<path style=" stroke:none;fill-rule:evenodd;fill:rgb(38.431373%,38.431373%,38.431373%);fill-opacity:1;" d="M 15.644531 6.417969 C 15.644531 6.660156 15.363281 6.851562 15.019531 6.851562 L 13.984375 6.851562 C 13.640625 6.851562 13.363281 6.660156 13.363281 6.417969 C 13.363281 6.179688 13.640625 5.988281 13.984375 5.988281 L 15.019531 5.988281 C 15.363281 5.988281 15.644531 6.179688 15.644531 6.417969 Z M 5.523438 6.417969 C 5.523438 6.660156 5.246094 6.851562 4.902344 6.851562 L 3.863281 6.851562 C 3.519531 6.851562 3.242188 6.660156 3.242188 6.417969 C 3.242188 6.179688 3.519531 5.988281 3.863281 5.988281 L 4.902344 5.988281 C 5.246094 5.988281 5.523438 6.179688 5.523438 6.417969 Z M 11.519531 6.417969 C 11.519531 7.214844 10.589844 7.859375 9.441406 7.859375 C 8.296875 7.859375 7.367188 7.214844 7.367188 6.417969 C 7.367188 5.625 8.296875 4.980469 9.441406 4.980469 C 10.589844 4.980469 11.519531 5.625 11.519531 6.417969 Z M 20.753906 11.460938 C 20.753906 11.617188 20.566406 11.75 20.339844 11.75 L 4.773438 11.75 C 4.546875 11.75 4.359375 11.617188 4.359375 11.460938 L 4.359375 10.453125 L 17.226562 10.453125 C 18.140625 10.453125 18.886719 9.9375 18.886719 9.300781 L 18.886719 5.410156 L 20.339844 5.410156 C 20.566406 5.410156 20.753906 5.542969 20.753906 5.699219 Z M 1.660156 9.589844 C 1.429688 9.589844 1.246094 9.460938 1.246094 9.300781 L 1.246094 3.539062 C 1.246094 3.378906 1.429688 3.25 1.660156 3.25 L 17.226562 3.25 C 17.457031 3.25 17.640625 3.378906 17.640625 3.539062 L 17.640625 9.300781 C 17.640625 9.460938 17.457031 9.589844 17.226562 9.589844 Z M 20.339844 4.546875 L 18.886719 4.546875 L 18.886719 3.539062 C 18.886719 2.902344 18.140625 2.386719 17.226562 2.386719 L 1.660156 2.386719 C 0.742188 2.386719 0 2.902344 0 3.539062 L 0 9.300781 C 0 9.9375 0.742188 10.453125 1.660156 10.453125 L 3.113281 10.453125 L 3.113281 11.460938 C 3.113281 12.097656 3.859375 12.613281 4.773438 12.613281 L 20.339844 12.613281 C 21.253906 12.613281 22 12.097656 22 11.460938 L 22 5.699219 C 22 5.0625 21.253906 4.546875 20.339844 4.546875 Z M 20.339844 4.546875 "/>
</g>
</svg>
